<?xml version="1.0" standalone="no"?>
<!DOCTYPE svg PUBLIC "-//W3C//DTD SVG 20010904//EN"
 "http://www.w3.org/TR/2001/REC-SVG-20010904/DTD/svg10.dtd">
<svg version="1.0" xmlns="http://www.w3.org/2000/svg"
 width="100.000000pt" height="101.000000pt" viewBox="0 0 100.000000 101.000000"
 preserveAspectRatio="xMidYMid meet">
<metadata>
Created by potrace 1.16, written by Peter Selinger 2001-2019
</metadata>
<g transform="translate(0.000000,101.000000) scale(0.100000,-0.100000)"
fill="#000000" stroke="none">
<path d="M0 1001 c0 -5 15 -12 33 -15 40 -8 57 -22 84 -66 46 -76 133 -307
133 -352 0 -4 -34 -8 -75 -8 -73 0 -75 -1 -75 -25 0 -25 1 -25 85 -25 l84 0
20 -44 c13 -30 26 -45 41 -48 18 -2 38 -40 113 -211 64 -148 95 -207 105 -205
14 3 182 377 182 404 0 7 -7 14 -14 16 -12 2 1 43 55 173 106 258 128 297 187
322 58 24 36 33 -83 33 -105 0 -115 -2 -115 -18 0 -11 9 -27 21 -38 17 -15 20
-27 15 -59 -4 -33 -124 -334 -157 -396 -8 -16 -6 -19 11 -19 12 0 20 -3 18 -8
-1 -4 -21 -51 -42 -105 -22 -54 -43 -94 -46 -90 -4 5 -24 50 -46 101 -30 72
-44 94 -62 99 -13 3 -31 21 -42 44 l-20 38 63 3 c59 3 62 4 65 31 l3 27 -78 0
-78 1 -33 82 c-94 230 -95 244 -20 269 68 23 60 38 -21 38 l-71 0 0 30 0 30
-120 0 c-66 0 -120 -4 -120 -9z"/>
</g>
</svg>
